<svg width="3355" height="1025" viewBox="0 0 3355 1025" fill="none" xmlns="http://www.w3.org/2000/svg">
<path d="M421.368 965.722C558.45 990.178 681.031 961.217 792.057 880.368C804.227 890.584 812.266 903.812 827.208 909.011C711.629 1029.76 416.789 1088.96 196.368 917.649C-34.2844 738.386 -72.5548 384.453 139.435 159.896C336.432 -48.7789 673.102 -56.5308 879.176 156.264C1089.14 373.081 1051.47 695.701 885.809 859.02C876.455 847.781 867.126 836.16 853.491 831.728C851.866 821.031 858.762 816.476 863.375 810.851C971.471 679.043 1003.39 530.046 949.432 369.085C892.165 198.25 770.53 93.0463 592.645 58.9534C331.991 8.99752 85.813 194.78 53.3514 452.406C19.8875 717.987 202.013 918.212 407.982 962.493C411.679 963.287 415.304 964.415 421.368 965.722Z" fill="#337039"/>
<path d="M2931.16 736.609C2835.59 736.612 2742.74 735.944 2649.91 737.045C2625.67 737.332 2616.8 730.736 2617.1 705.049C2618.4 594.146 2618.32 483.214 2617.21 372.308C2616.96 347.324 2624.89 339.456 2649.75 339.807C2738.78 341.062 2827.85 340.949 2916.89 339.971C2939.31 339.725 2947.22 347.266 2946.34 369.48C2945 403.556 2944.91 437.767 2946.32 471.836C2947.28 495.025 2939.64 504.375 2915.59 502.816C2872.14 500.001 2828.57 499 2785.03 497.969C2775.25 497.737 2764.27 494.094 2754.86 503.198C2757.69 514.919 2767.34 512.697 2774.88 512.461C2805.16 511.516 2835.45 510.479 2865.67 508.371C2883.47 507.128 2894.88 509.807 2894.67 531.781C2894.48 552.102 2893.32 567.677 2866.33 565.217C2835.25 562.382 2803.99 561.185 2772.78 560.135C2764.34 559.85 2753.28 555.775 2748.58 568.497C2753.99 581.828 2764.79 575.259 2773.08 574.957C2824.17 573.094 2875.31 571.652 2926.28 567.975C2953.04 566.045 2961.71 576.359 2960.74 602.01C2959.37 637.98 2960.07 674.05 2960.66 710.065C2960.98 729.058 2953.8 738.855 2931.16 736.609Z" fill="#337039"/>
<path d="M1833.74 341.094C1850.84 345.039 1848.07 357.063 1848.18 366.888C1848.58 402.875 1847.56 438.894 1848.69 474.85C1849.34 495.661 1842.06 503.795 1820.79 502.636C1774.52 500.115 1728.17 498.879 1681.84 497.888C1672.34 497.686 1660.79 493.423 1653.43 505.118C1660.52 516.998 1672.03 512.809 1681.53 512.547C1711.78 511.713 1742.02 510.118 1772.22 508.133C1790.65 506.921 1798.03 514.681 1797.22 533.023C1796.49 549.624 1798.61 566.721 1773.51 565.118C1741.43 563.068 1709.32 561.086 1677.2 560.18C1668.17 559.925 1655.63 554.794 1651.29 569.689C1657.9 581.692 1668.22 575.292 1676.76 574.964C1726.84 573.046 1776.94 571.398 1826.93 568.127C1850.81 566.565 1861.73 573.138 1860.44 599.279C1858.61 636.127 1859.28 673.149 1860.21 710.064C1860.69 729.18 1854.52 737.063 1834.31 736.908C1737.78 736.167 1641.23 736.132 1544.7 736.925C1523.2 737.101 1515.92 728.284 1516.86 708.213C1522.25 592.801 1519.25 477.302 1519.65 361.843C1519.72 340.09 1531.9 340.185 1547.09 340.234C1641.74 340.535 1736.39 340.612 1833.74 341.094Z" fill="#337039"/>
<path d="M3321.03 526.818C3293.21 549.005 3261.82 555.511 3223.71 560.978C3268.07 564.752 3302.64 577.045 3326.44 608.912C3349.49 639.774 3356.32 675.761 3354.55 713.698C3354.04 724.529 3353.42 735.895 3338.91 736.003C3290.03 736.365 3241.15 736.141 3189.45 736.141C3191.09 696.856 3202.33 661.685 3191.66 626.046C3182.68 596.048 3166.35 582.494 3137.02 582.857C3121.14 583.053 3114.22 589.109 3115.77 604.942C3118.91 636.9 3121.1 668.978 3125.2 700.81C3129.28 732.453 3127.13 736.319 3096.55 736.557C3065.32 736.8 3034.08 736.171 3002.85 736.688C2986.48 736.959 2979.32 731.85 2979.52 713.714C2980.76 601.031 2981.66 488.332 2980.89 375.65C2980.71 348.974 2987.69 338.417 3015.74 339.856C3093.1 343.824 3170.92 333.934 3248.04 346.327C3322.69 358.323 3363.46 412.809 3349.5 479.834C3345.63 498.422 3335.95 512.81 3321.03 526.818ZM3171.43 503.734C3158.3 503.697 3145.17 503.575 3132.04 503.65C3122.17 503.706 3112.3 504.521 3112.7 517.981C3113.08 530.668 3117.83 539.714 3132.84 539.223C3145.96 538.794 3159.21 540.153 3172.19 538.798C3187.26 537.226 3210.54 540.867 3211.89 521.964C3213.24 502.896 3189.63 508.091 3171.43 503.734Z" fill="#337039"/>
<path d="M1128.26 404.894C1129.38 331.121 1119.02 341.386 1190.2 340.344C1197.78 340.233 1205.36 340.175 1212.93 340.344C1272.44 341.672 1270.26 328.335 1267.57 399.389C1266.19 435.724 1261.73 471.942 1262.14 508.752C1271.95 461.899 1282.63 415.205 1291.15 368.119C1294.88 347.553 1303.41 339.3 1324.87 339.883C1372.18 341.167 1419.54 340.084 1466.89 340.316C1475 340.356 1483.94 337.991 1487.44 341.383C1437.73 398.879 1388.09 456.284 1351.53 498.567C1396.69 480.815 1451.69 503.819 1479.11 570.611C1498.48 617.801 1503.76 667.389 1496.17 718.152C1494.83 727.047 1494.03 735.968 1482.52 736.021C1432.72 736.253 1382.91 736.12 1329.85 736.12C1333.97 699.923 1341.46 668.524 1339.45 636.378C1338.51 621.185 1338.06 606.072 1332.55 591.71C1325.51 573.33 1313.22 559.577 1292.41 562.864C1271.75 566.128 1261.61 582.649 1263.24 602.431C1266.11 637.213 1270.09 672.097 1276.86 706.296C1281.42 729.349 1276.03 737.805 1252.35 736.913C1221.15 735.739 1189.81 735.433 1158.64 736.964C1135.21 738.115 1127.56 729.802 1127.82 706.179C1128.9 606.703 1128.27 507.208 1128.26 404.894Z" fill="#337039"/>
<path d="M1880.84 484.41C1880.96 442.76 1881.03 403.954 1881.22 365.148C1881.28 351.789 1883.67 340.064 1901.02 340.574C1979.34 342.877 2058.08 333.171 2135.97 346.131C2219.1 359.963 2257.87 413.763 2251.72 502.798C2247.15 568.959 2189.69 619.86 2115.76 622.627C2090.25 623.582 2064.69 623.668 2039.16 623.323C2023.31 623.109 2017.94 629.49 2018.23 645.485C2018.76 674.494 2029.11 702.843 2024.59 735.791C1980.6 735.791 1937.42 736.927 1894.35 735.232C1877.07 734.553 1880.36 717.505 1880.34 705.893C1880.22 633.014 1880.62 560.134 1880.84 484.41ZM2075.06 550.875C2080.74 550.758 2086.48 551.103 2092.09 550.426C2103.83 549.012 2116.4 545.979 2116.07 531.579C2115.73 517.099 2103.13 514.286 2091.2 514.058C2071.33 513.679 2051.42 513.506 2031.56 514.313C2017.39 514.89 2016.27 526.16 2016.01 537.034C2015.73 548.798 2023.58 550.883 2033.05 550.867C2045.36 550.846 2057.68 550.892 2075.06 550.875Z" fill="#337039"/>
<path d="M2426.43 573.073C2476.62 564.301 2525.25 571.326 2573.18 565.088C2590.09 562.887 2597.48 571.766 2597.44 588.277C2597.33 629.927 2597.25 671.58 2597.59 713.228C2597.73 729.971 2590.41 736.8 2573.58 736.725C2480.88 736.313 2388.17 736.34 2295.47 736.542C2278.97 736.578 2271.28 729.847 2271.31 712.926C2271.45 596.492 2271.42 480.058 2271.05 363.626C2271 346.405 2278.78 340.045 2295.2 340.29C2324.51 340.728 2353.84 340.228 2383.17 340.391C2416.06 340.573 2417.59 342.61 2415.43 376.727C2411.85 433.326 2408.46 489.938 2405.08 546.55C2404.26 560.354 2403.42 574.463 2426.43 573.073Z" fill="#337039"/>
<path d="M672.156 692.444C700.065 722.206 726.932 750.204 753.121 778.823C770.532 797.849 768.514 805.5 744.918 816.01C698.896 836.51 653.554 826.644 609.658 810.182C488.708 764.821 396.857 681.657 320.315 580.328C270.892 514.903 231.195 444.088 216.184 362.01C209.972 328.045 209.696 294.076 224.635 261.824C238.324 232.271 246.06 231.001 268.342 255.063C361.567 355.734 454.58 456.603 547.655 557.414C588.732 601.906 629.77 646.433 672.156 692.444Z" fill="#337039"/>
<path d="M344.358 199.177C441.323 213.109 518.845 260.801 589.079 322.012C681.901 402.911 756.706 497.028 795.343 615.976C810.465 662.532 817.644 710.42 798.912 757.75C785.295 792.153 775.802 792.48 750.601 765.064C593.6 594.267 436.387 423.665 279.148 253.087C254.478 226.324 256.72 216.16 291.449 205.692C307.754 200.778 324.553 197.462 344.358 199.177Z" fill="#337039"/>
<path d="M824.219 855.034C837.809 844.841 848.582 846.008 857.015 858.411C862.842 866.981 863.105 876.252 855.78 884.197C847.849 892.799 837.964 894.994 828.141 887.94C816.582 879.64 813.616 868.929 824.219 855.034Z" fill="#337039"/>
</svg>
