<svg width="1024" height="1024" viewBox="0 0 1024 1024" fill="none" xmlns="http://www.w3.org/2000/svg">
<g clip-path="url(#clip0_7_2)">
<path d="M797.734 937.918C735.113 979.074 668.083 1006.38 594.922 1017.12C448.225 1038.67 314.293 1007.74 196.52 915.971C88.0745 831.464 22.1845 719.906 5.02003 584.241C-19.0505 393.991 43.4586 234.374 192.167 111.438C267.734 48.9673 355.836 14.3736 453.39 3.36034C727.26 -27.5586 970.371 158.234 1015.7 422.832C1043.45 584.836 1001.33 729.435 893.771 854.352C891.281 857.243 889.361 861.404 882.592 861.214C882.436 842.149 870.488 833.476 848.883 832.625C964.431 700.818 1003.06 552.488 958.694 386.187C929.579 277.039 865.271 190.644 771.601 127.207C583.115 -0.442879 333.462 27.2382 174.262 192.778C21.3485 351.783 4.48464 606.628 135.453 784.239C212.799 889.131 316.269 952.833 444.95 971.57C573.509 990.29 690.641 958.128 796.778 878.91C802.702 896.124 811.271 908.889 831.869 908.26C823.038 921.195 809.93 928.268 797.734 937.918Z" fill="#337039"/>
<path d="M384.893 653.804C327.661 594.233 280.191 529.129 246.836 454.404C226.926 409.8 212.387 363.605 213.326 314.063C213.813 288.383 220.34 264.14 236.067 243.014C242.292 234.652 247.378 233.639 255.123 242.033C380.978 378.42 507.055 514.602 633.116 650.8C675.019 696.074 716.713 741.549 759.184 786.285C769.706 797.369 765.932 803.224 755.316 809.328C724.18 827.23 690.938 828.056 656.83 821.305C586.668 807.417 526.833 772.237 470.452 730.221C439.987 707.519 411.703 682.26 384.893 653.804Z" fill="#337039"/>
<path d="M448.083 432.718C388.226 368.133 329.08 304.358 270.036 240.487C255.927 225.224 256.511 222.031 275.509 212.229C304.718 197.159 335.591 196.44 367.113 202.494C442.148 216.906 506.092 254.21 564.624 301.065C662.132 379.118 740.007 472.919 786.384 590.246C804.152 635.198 816.138 681.589 807.376 730.807C804.219 748.536 797.578 764.647 786.727 779.11C780.135 787.896 775.037 787.335 767.619 779.267C661.517 663.861 555.142 548.707 448.083 432.718Z" fill="#337039"/>
<path d="M820.389 870.245C821.338 854.925 828.886 847.411 842.935 848.463C855.315 849.389 861.72 857.239 862.256 869.594C862.815 882.471 855.572 889.299 843.773 891.51C832.402 893.641 823.838 885.957 820.389 870.245Z" fill="#337039"/>
</g>
<defs>
<clipPath id="clip0_7_2">
<rect width="1024" height="1024" fill="white"/>
</clipPath>
</defs>
</svg>
